<svg xmlns="http://www.w3.org/2000/svg" viewBox="0 0 1000 420" font-family="Battambang, Siemreap, sans-serif"><rect width="1000" height="420" fill="#ffffff"/><text x="24.0" y="38.0" font-size="24" fill="#00695c" text-anchor="start" font-weight="bold" class="ftitle">ចំនួនចំណុចកំពូល និងភាពលម្អិត</text><path d="M106.3 118.4 L104.9 118.1 L104.2 117.5 L104.3 117.2 L106.0 117.3 L108.0 117.8 L106.3 118.4Z M101.2 116.6 L105.1 118.9 L105.6 119.0 L105.8 119.2 L105.6 119.5 L104.7 119.5 L104.2 119.1 L104.8 119.2 L104.3 118.8 L103.3 118.4 L99.7 118.9 L99.2 118.8 L98.3 118.0 L100.2 116.9 L98.5 116.8 L97.9 116.4 L98.8 115.8 L101.2 116.6Z M92.0 112.8 L93.9 114.2 L94.6 114.3 L97.0 113.8 L98.3 114.0 L99.2 114.5 L100.2 115.6 L98.5 115.4 L95.9 117.0 L94.2 117.4 L90.1 117.0 L89.5 116.4 L89.1 115.1 L88.3 114.3 L89.6 114.6 L89.8 114.5 L89.4 113.7 L90.6 113.9 L90.7 113.5 L89.4 111.7 L89.7 109.6 L90.0 109.4 L90.7 110.2 L92.0 112.8Z M93.7 110.1 L94.8 111.7 L98.9 113.1 L104.1 116.3 L102.8 116.4 L101.5 115.8 L100.5 115.0 L100.2 114.3 L98.1 113.3 L96.7 113.2 L94.3 113.9 L93.7 113.7 L91.3 110.4 L91.8 109.6 L92.4 110.1 L92.5 109.5 L92.3 108.9 L92.8 108.1 L93.7 110.1Z M154.8 92.5 L161.0 95.2 L162.6 96.2 L165.8 97.4 L168.5 98.0 L173.3 100.2 L176.3 101.9 L178.5 103.7 L178.9 103.6 L179.4 104.0 L181.4 105.5 L186.8 108.5 L207.6 113.8 L207.9 114.7 L209.4 115.8 L210.1 116.6 L209.3 117.8 L209.2 119.1 L208.3 120.3 L209.3 122.0 L209.1 122.7 L208.3 123.5 L208.3 124.5 L207.0 124.6 L206.5 124.9 L206.3 126.0 L206.4 126.5 L206.9 127.5 L207.3 127.8 L209.2 127.9 L210.3 129.1 L212.0 128.4 L213.5 129.9 L213.7 130.4 L213.5 131.0 L210.0 131.9 L210.1 132.8 L211.2 133.6 L211.2 134.9 L212.2 135.8 L211.9 136.6 L212.1 136.8 L213.2 136.3 L214.0 136.8 L213.4 137.7 L212.3 138.3 L212.2 138.8 L212.6 139.1 L213.5 138.8 L214.0 139.0 L214.3 140.5 L213.6 141.4 L214.5 141.9 L215.3 142.8 L216.5 143.3 L219.2 142.3 L219.0 144.5 L219.9 144.8 L219.3 146.0 L220.0 146.5 L220.7 147.6 L220.2 149.1 L220.5 150.6 L220.3 151.9 L219.9 152.7 L219.1 153.1 L218.7 153.8 L219.2 155.1 L218.6 156.3 L219.2 156.8 L219.6 157.8 L219.0 158.8 L220.1 159.1 L220.5 158.2 L220.9 157.9 L221.2 158.5 L222.1 158.6 L222.4 158.4 L222.1 158.1 L222.5 158.0 L222.6 157.1 L223.3 156.6 L223.4 156.2 L223.8 156.6 L224.1 156.2 L224.1 155.8 L224.5 156.2 L224.6 155.9 L224.9 156.1 L225.4 155.7 L225.8 153.0 L225.2 152.9 L225.7 152.5 L225.5 151.8 L225.9 152.1 L226.1 151.5 L226.3 151.9 L227.2 150.8 L227.5 151.0 L227.9 151.8 L228.2 151.8 L228.2 152.1 L228.4 152.1 L228.7 153.9 L227.9 155.6 L227.9 156.8 L228.5 156.5 L228.7 156.6 L228.1 157.4 L229.1 157.4 L229.5 158.2 L229.0 158.4 L229.0 158.8 L229.6 158.8 L229.8 159.3 L229.6 160.0 L228.8 160.7 L229.1 161.0 L228.9 161.3 L229.2 161.7 L228.8 161.8 L228.7 162.2 L228.4 161.5 L228.1 162.3 L227.7 162.4 L227.9 162.9 L227.3 163.2 L227.3 163.9 L228.3 164.7 L228.3 165.1 L227.8 165.9 L227.9 166.6 L227.0 167.1 L226.7 167.6 L226.2 167.4 L225.2 167.6 L224.2 168.0 L221.6 170.5 L221.0 171.7 L219.5 171.7 L219.3 171.8 L219.6 173.4 L219.3 173.6 L219.2 174.5 L218.7 174.8 L218.5 175.6 L218.0 176.0 L218.0 176.6 L217.0 177.2 L216.8 177.6 L216.9 178.7 L217.3 180.4 L216.4 181.5 L216.3 182.6 L216.3 183.0 L216.8 183.5 L217.7 183.6 L218.2 186.5 L218.8 187.9 L219.1 189.5 L220.0 191.4 L222.2 194.6 L222.1 196.0 L222.5 197.8 L223.2 198.1 L223.6 199.2 L224.7 199.4 L225.7 200.1 L226.5 200.1 L226.3 200.8 L226.6 201.4 L225.6 201.5 L225.4 202.2 L225.5 203.0 L225.1 202.9 L224.8 203.1 L225.3 204.8 L225.5 205.0 L226.3 205.1 L227.9 204.4 L228.8 204.4 L229.4 204.9 L229.7 206.2 L230.2 213.3 L230.1 218.7 L227.9 221.2 L226.7 223.1 L225.9 225.1 L225.8 228.9 L221.2 242.5 L222.1 243.0 L222.4 242.8 L222.4 242.1 L223.6 242.2 L224.6 242.8 L225.5 244.8 L226.6 246.1 L226.7 247.3 L227.1 248.4 L226.8 248.9 L227.7 251.3 L227.5 252.0 L226.7 252.9 L226.3 254.2 L228.3 258.0 L227.8 258.5 L228.1 258.8 L227.7 259.4 L226.3 260.0 L226.7 261.5 L226.4 264.2 L226.8 264.5 L226.2 264.5 L226.4 265.0 L225.6 265.6 L225.8 265.8 L225.7 266.4 L225.3 266.5 L225.3 266.3 L224.5 266.0 L224.3 266.1 L224.4 266.4 L223.6 266.9 L223.3 266.1 L224.0 265.8 L223.9 265.5 L223.4 265.6 L221.2 266.6 L220.9 267.2 L218.8 267.7 L218.3 269.0 L216.5 270.7 L216.2 272.7 L214.8 276.6 L213.6 277.7 L211.1 278.3 L210.1 281.5 L210.0 286.5 L209.7 288.1 L207.7 291.7 L208.1 293.4 L208.1 294.9 L206.2 293.0 L205.1 292.6 L202.9 293.4 L199.6 293.9 L198.5 294.3 L197.6 295.0 L197.0 296.5 L196.7 296.6 L194.6 294.6 L192.4 296.4 L193.6 299.3 L194.5 300.4 L194.5 301.2 L194.1 301.1 L193.8 301.7 L193.8 302.3 L194.7 303.0 L193.9 304.4 L195.5 305.2 L195.6 305.8 L196.3 306.9 L197.4 308.1 L197.0 308.5 L196.5 308.4 L195.9 309.0 L194.9 309.2 L194.8 309.4 L194.6 309.2 L194.1 309.5 L193.8 309.0 L193.6 309.0 L192.7 310.4 L190.5 311.3 L189.7 311.4 L188.5 310.5 L187.5 310.8 L187.3 310.5 L185.4 311.0 L185.3 311.4 L184.8 311.7 L184.5 311.8 L183.9 311.4 L183.9 311.8 L183.0 312.4 L182.2 312.5 L182.1 312.0 L181.6 312.5 L181.6 313.0 L182.0 314.1 L181.6 314.5 L180.3 315.3 L179.7 315.3 L179.5 314.9 L179.0 315.3 L178.5 315.0 L178.3 315.2 L178.4 315.6 L177.7 316.2 L177.1 316.1 L176.1 316.6 L175.9 316.2 L175.0 316.3 L173.8 316.0 L173.5 315.4 L172.9 315.5 L172.9 315.0 L171.7 314.9 L171.4 315.1 L171.7 315.4 L171.6 315.7 L170.8 316.1 L170.3 317.0 L170.1 317.1 L169.8 316.7 L168.9 317.1 L168.7 316.7 L168.4 316.7 L168.1 317.3 L167.3 317.9 L166.1 317.0 L164.5 316.8 L163.7 316.5 L162.8 316.6 L161.5 315.9 L161.0 316.7 L160.7 316.4 L160.1 317.1 L159.5 317.0 L159.0 317.5 L158.6 317.5 L158.0 316.8 L157.5 317.3 L156.6 317.1 L156.5 317.5 L155.2 317.3 L153.4 317.4 L153.3 317.8 L153.9 318.0 L154.0 318.4 L153.6 318.6 L153.0 318.2 L152.8 318.9 L151.7 319.6 L150.6 319.6 L150.6 320.5 L150.0 321.1 L149.5 320.8 L147.6 321.8 L147.1 321.7 L146.6 321.9 L146.1 321.4 L145.9 321.5 L146.0 322.4 L144.0 324.2 L143.9 324.6 L144.1 324.9 L143.5 325.2 L143.2 325.7 L142.2 325.9 L141.6 326.7 L141.2 326.8 L140.6 327.7 L140.6 328.5 L139.9 328.7 L139.7 328.5 L139.7 329.1 L138.0 330.0 L138.0 330.4 L137.6 330.6 L137.7 331.1 L137.2 331.8 L135.6 332.5 L135.9 332.8 L135.7 333.0 L134.7 333.3 L134.6 333.7 L134.2 334.0 L134.2 334.4 L134.5 334.8 L134.4 335.2 L134.0 334.8 L132.5 335.8 L132.0 335.8 L131.6 335.3 L131.1 335.7 L130.2 335.1 L129.1 336.8 L128.7 336.2 L128.1 336.0 L128.1 336.4 L127.7 336.7 L126.8 336.5 L126.7 337.1 L126.4 337.2 L126.3 336.7 L124.3 337.5 L123.6 337.5 L123.2 336.9 L122.6 337.1 L121.7 336.5 L120.4 336.9 L120.2 336.6 L118.6 336.5 L117.9 337.2 L116.7 337.2 L116.1 336.8 L116.2 336.4 L115.3 335.7 L112.8 334.8 L112.5 333.8 L111.8 333.2 L111.2 331.9 L110.3 331.6 L109.5 331.6 L108.8 332.0 L107.3 331.1 L105.9 331.1 L103.9 330.4 L103.5 330.1 L103.1 330.3 L102.9 330.8 L101.2 330.6 L100.3 330.2 L98.9 330.1 L98.4 330.3 L97.9 329.9 L97.5 330.1 L96.4 329.1 L95.2 329.5 L94.7 328.7 L94.5 328.9 L94.2 328.5 L93.2 328.6 L92.8 328.3 L92.9 327.9 L92.7 327.8 L91.0 328.5 L89.3 327.4 L87.8 327.9 L87.2 327.5 L86.3 328.1 L85.3 327.6 L85.0 327.3 L85.1 326.9 L83.7 326.3 L83.2 325.6 L82.0 323.3 L81.6 323.2 L81.3 322.5 L80.3 321.7 L79.8 320.7 L78.5 319.4 L77.7 319.0 L77.4 318.3 L77.2 318.4 L76.8 317.9 L75.6 317.3 L75.5 316.5 L75.0 316.6 L74.6 315.7 L73.8 314.8 L73.7 313.6 L73.4 312.8 L72.4 312.5 L71.5 311.4 L71.5 310.0 L71.7 309.8 L70.9 308.6 L70.7 307.9 L71.3 307.2 L71.0 306.3 L71.8 305.4 L71.5 304.7 L72.0 304.0 L70.0 301.6 L69.7 300.8 L69.9 300.2 L69.1 299.6 L68.7 299.6 L68.6 297.7 L68.2 297.4 L68.4 297.0 L67.9 297.0 L67.4 296.5 L66.9 296.5 L66.9 295.8 L65.5 295.3 L65.2 294.5 L64.1 294.1 L63.2 292.9 L62.1 292.6 L61.1 291.9 L60.3 291.8 L59.8 291.2 L59.3 291.3 L59.0 290.5 L58.7 290.6 L58.5 290.0 L57.3 289.1 L55.8 287.2 L55.9 286.4 L55.5 286.1 L56.2 284.9 L56.5 283.5 L56.2 283.3 L55.6 283.4 L55.5 282.2 L55.0 281.7 L55.1 281.2 L54.7 281.3 L54.1 280.6 L53.9 280.3 L54.2 279.8 L53.5 279.5 L53.9 279.2 L53.6 278.9 L53.5 278.1 L52.9 277.3 L53.0 275.3 L54.6 272.2 L55.1 269.2 L54.7 267.8 L53.8 266.2 L53.7 264.2 L53.1 263.6 L51.8 261.3 L50.7 261.4 L48.2 260.9 L46.8 260.0 L44.1 259.5 L43.1 258.8 L42.0 256.7 L41.0 253.4 L40.4 252.5 L39.8 249.4 L38.9 248.2 L38.9 246.1 L38.4 245.4 L38.4 243.9 L37.6 241.4 L37.7 239.9 L37.1 239.2 L36.8 238.2 L37.0 237.5 L36.6 237.2 L36.8 236.2 L36.3 235.5 L35.7 235.2 L35.3 233.7 L34.2 233.6 L33.5 233.1 L34.1 232.5 L33.9 231.3 L34.1 230.2 L33.7 224.1 L34.1 223.0 L33.5 221.1 L33.5 217.0 L33.0 216.5 L33.1 215.8 L32.9 215.5 L31.8 214.6 L30.4 214.4 L29.8 213.2 L30.0 211.5 L29.8 210.2 L31.1 208.5 L31.0 207.8 L30.5 207.6 L30.0 206.8 L30.2 205.5 L31.0 202.2 L31.7 197.4 L32.3 196.2 L32.2 195.2 L33.1 194.4 L33.6 193.1 L34.4 191.9 L34.6 190.3 L35.9 189.7 L37.0 188.4 L37.7 188.3 L38.2 186.8 L39.7 185.4 L40.6 183.6 L41.4 182.9 L42.3 182.5 L42.6 181.8 L43.8 181.2 L45.2 181.2 L46.9 180.7 L47.5 181.0 L49.5 180.4 L50.1 179.9 L51.0 180.3 L52.7 180.2 L54.4 179.1 L55.1 179.1 L55.8 178.0 L56.0 176.8 L56.6 176.3 L57.5 175.0 L59.0 174.4 L59.4 173.6 L60.1 173.3 L60.6 172.4 L62.8 172.3 L63.4 172.6 L64.3 172.6 L65.0 172.3 L65.8 171.5 L67.2 171.4 L67.8 171.3 L68.0 170.9 L68.4 171.6 L69.0 171.5 L69.2 170.9 L69.0 169.9 L71.3 169.2 L72.4 168.3 L73.0 166.9 L74.5 165.4 L75.7 163.4 L78.6 155.2 L78.9 152.3 L79.6 151.1 L81.0 150.7 L82.5 149.4 L84.3 148.4 L85.1 147.6 L85.9 146.1 L88.7 145.9 L90.5 145.0 L89.1 143.2 L89.1 141.7 L89.6 140.6 L88.1 137.8 L87.9 136.8 L87.1 134.9 L87.3 130.7 L87.6 129.4 L88.9 127.1 L88.8 125.5 L89.5 123.4 L89.3 122.8 L88.7 121.9 L89.2 121.5 L88.8 120.0 L89.4 119.2 L90.0 119.8 L91.8 120.8 L93.2 120.7 L94.3 120.2 L95.1 119.1 L96.1 119.9 L96.1 119.3 L97.4 119.3 L97.6 119.6 L102.2 118.7 L103.2 118.8 L104.4 119.9 L105.4 120.2 L109.6 119.0 L110.7 119.3 L112.0 120.4 L112.7 120.3 L113.0 120.4 L113.0 120.6 L114.1 120.3 L114.7 120.7 L115.1 120.5 L115.3 120.3 L112.8 119.5 L112.1 119.0 L113.0 118.6 L114.0 118.7 L115.2 119.5 L117.3 121.7 L117.7 121.6 L117.1 121.0 L118.7 122.1 L119.3 123.7 L119.2 124.5 L119.6 125.2 L121.3 126.7 L121.3 128.3 L121.7 128.9 L122.1 130.5 L123.1 131.9 L124.0 133.8 L123.9 134.3 L124.7 134.3 L126.1 134.9 L126.6 136.1 L127.4 136.8 L127.6 137.6 L128.0 138.1 L129.2 137.6 L131.2 138.9 L131.7 139.3 L131.7 139.5 L132.9 139.4 L133.5 139.5 L135.6 141.2 L137.8 143.4 L139.3 143.8 L139.9 143.7 L139.7 142.8 L139.1 142.0 L139.2 141.1 L138.5 140.3 L138.5 140.1 L138.9 140.3 L140.1 141.3 L140.8 142.5 L141.4 144.3 L141.4 146.3 L141.5 146.7 L141.8 146.7 L141.9 144.1 L142.3 143.5 L142.0 141.6 L140.6 140.2 L139.4 137.7 L134.3 134.2 L133.2 133.8 L130.5 131.6 L129.0 129.9 L127.7 127.7 L126.7 126.9 L125.4 124.8 L125.8 124.5 L126.7 125.7 L128.9 126.7 L129.7 127.4 L131.9 128.0 L132.8 128.7 L133.1 128.6 L134.9 129.7 L134.9 129.9 L134.3 130.2 L134.4 130.4 L136.5 131.0 L138.5 132.3 L140.1 133.9 L140.2 134.3 L142.6 136.3 L143.5 136.1 L144.0 135.7 L143.8 135.0 L144.3 134.3 L145.5 134.6 L145.8 133.7 L146.0 133.7 L146.1 132.0 L146.8 130.7 L146.3 129.8 L146.1 126.9 L144.2 125.6 L141.7 123.4 L139.3 122.6 L137.6 122.5 L137.1 122.0 L137.0 122.1 L134.5 121.1 L131.6 118.6 L127.6 117.8 L124.3 116.4 L122.8 115.3 L123.0 112.8 L124.4 111.5 L124.8 110.4 L125.3 109.8 L125.1 107.8 L124.7 107.4 L124.9 106.9 L124.5 106.5 L124.9 103.9 L131.8 99.5 L133.1 99.2 L135.5 97.9 L138.8 96.6 L141.8 96.3 L145.8 93.9 L149.3 94.0 L154.8 92.5Z" fill="#b2dfdb" stroke="#00695c" stroke-width="1" opacity="1" fill-rule="evenodd"/><text x="130.0" y="370.0" font-size="16" fill="#00695c" text-anchor="middle" font-weight="bold" >៨៥៦ ចំណុច</text><path d="M353.0 117.8 L349.9 118.1 L349.3 117.2 L353.0 117.8Z M343.8 115.8 L350.1 118.9 L350.8 119.2 L349.7 119.5 L348.3 118.4 L344.2 118.8 L343.3 118.0 L345.2 116.9 L342.9 116.4 L343.8 115.8Z M337.0 112.8 L338.9 114.2 L343.3 114.0 L345.2 115.6 L343.5 115.4 L339.2 117.4 L335.1 117.0 L333.3 114.3 L335.6 113.9 L334.4 111.7 L335.0 109.4 L337.0 112.8Z M337.8 108.1 L339.8 111.7 L343.9 113.1 L349.1 116.3 L346.5 115.8 L343.1 113.3 L338.7 113.7 L336.3 110.4 L336.8 109.6 L337.4 110.1 L337.8 108.1Z M399.8 92.5 L418.3 100.2 L431.8 108.5 L452.6 113.8 L455.1 116.6 L453.3 120.3 L454.1 122.7 L453.3 124.5 L451.5 124.9 L451.4 126.5 L452.3 127.8 L454.2 127.9 L455.3 129.1 L457.0 128.4 L458.5 129.9 L458.5 131.0 L455.0 131.9 L457.2 135.8 L456.9 136.6 L459.0 136.8 L457.2 138.8 L459.0 139.0 L459.3 140.5 L458.6 141.4 L460.3 142.8 L461.5 143.3 L464.2 142.3 L464.0 144.5 L464.9 144.8 L464.3 146.0 L465.7 147.6 L465.3 151.9 L463.7 153.8 L464.2 155.1 L463.6 156.3 L464.6 157.8 L464.0 158.8 L465.1 159.1 L465.9 157.9 L467.1 158.6 L468.4 156.2 L470.4 155.7 L470.5 151.8 L472.2 150.8 L473.4 152.1 L472.9 156.8 L473.7 156.6 L473.1 157.4 L474.1 157.4 L474.0 158.8 L474.8 159.3 L473.8 160.7 L474.2 161.7 L473.4 161.5 L472.3 163.2 L473.3 164.7 L472.9 166.6 L469.2 168.0 L466.0 171.7 L464.3 171.8 L464.2 174.5 L461.8 177.6 L462.3 180.4 L461.3 182.6 L462.7 183.6 L464.1 189.5 L467.2 194.6 L467.5 197.8 L468.6 199.2 L471.5 200.1 L471.6 201.4 L470.6 201.5 L470.5 203.0 L469.8 203.1 L470.3 204.8 L473.8 204.4 L474.7 206.2 L475.1 218.7 L470.9 225.1 L470.8 228.9 L466.2 242.5 L469.6 242.8 L471.6 246.1 L472.7 251.3 L471.3 254.2 L473.3 258.0 L471.3 260.0 L471.8 264.5 L470.7 266.4 L469.5 266.0 L468.6 266.9 L468.4 265.6 L463.8 267.7 L461.5 270.7 L459.8 276.6 L456.1 278.3 L454.7 288.1 L452.7 291.7 L453.1 294.9 L450.1 292.6 L443.5 294.3 L441.7 296.6 L439.6 294.6 L437.4 296.4 L439.5 300.4 L438.8 301.7 L439.7 303.0 L438.9 304.4 L440.5 305.2 L442.0 308.5 L439.1 309.5 L438.6 309.0 L435.5 311.3 L432.3 310.5 L428.0 312.4 L427.1 312.0 L426.6 314.5 L423.5 315.0 L422.7 316.2 L421.1 316.6 L416.7 314.9 L415.3 317.0 L413.4 316.7 L412.3 317.9 L406.5 315.9 L404.0 317.5 L403.0 316.8 L398.4 317.4 L399.0 318.4 L395.6 319.6 L395.0 321.1 L390.9 321.5 L389.1 324.9 L379.7 333.3 L379.4 335.2 L379.0 334.8 L377.0 335.8 L375.2 335.1 L374.1 336.8 L373.1 336.0 L369.3 337.5 L366.7 336.5 L361.7 337.2 L357.8 334.8 L355.3 331.6 L353.8 332.0 L348.5 330.1 L347.9 330.8 L342.5 330.1 L337.7 327.8 L336.0 328.5 L334.3 327.4 L331.3 328.1 L330.3 327.6 L324.8 320.7 L318.8 314.8 L318.4 312.8 L316.5 311.4 L315.7 307.9 L317.0 304.0 L314.9 300.2 L313.7 299.6 L313.4 297.0 L308.2 292.9 L304.3 291.3 L300.8 287.2 L301.5 283.5 L300.6 283.4 L297.9 277.3 L300.1 269.2 L298.7 264.2 L296.8 261.3 L289.1 259.5 L287.0 256.7 L283.9 248.2 L281.8 236.2 L280.3 233.7 L278.5 233.1 L279.1 232.5 L278.5 217.0 L277.9 215.5 L275.4 214.4 L274.8 213.2 L274.8 210.2 L276.1 208.5 L275.0 206.8 L277.2 195.2 L279.4 191.9 L279.6 190.3 L282.7 188.3 L285.6 183.6 L288.8 181.2 L297.7 180.2 L300.1 179.1 L301.0 176.8 L305.6 172.4 L309.3 172.6 L313.0 170.9 L314.0 171.5 L314.0 169.9 L317.4 168.3 L320.7 163.4 L324.6 151.1 L329.3 148.4 L330.9 146.1 L335.5 145.0 L334.1 143.2 L334.6 140.6 L332.1 134.9 L332.3 130.7 L334.5 123.4 L333.7 121.9 L334.4 119.2 L336.8 120.8 L339.3 120.2 L340.1 119.1 L341.1 119.9 L347.2 118.7 L350.4 120.2 L354.6 119.0 L357.0 120.4 L360.1 120.5 L357.1 119.0 L359.0 118.7 L363.7 122.1 L364.6 125.2 L366.3 126.7 L368.9 134.3 L371.1 134.9 L373.0 138.1 L374.2 137.6 L376.7 139.5 L378.5 139.5 L384.3 143.8 L384.9 143.7 L383.9 140.3 L385.8 142.5 L386.8 146.7 L387.0 141.6 L384.4 137.7 L375.5 131.6 L370.4 124.8 L379.9 129.7 L379.4 130.4 L383.5 132.3 L387.6 136.3 L389.0 135.7 L389.3 134.3 L390.5 134.6 L391.0 133.7 L391.8 130.7 L391.1 126.9 L386.7 123.4 L382.6 122.5 L376.6 118.6 L372.6 117.8 L367.8 115.3 L368.0 112.8 L370.3 109.8 L369.5 106.5 L369.9 103.9 L376.8 99.5 L383.8 96.6 L386.8 96.3 L390.8 93.9 L394.3 94.0 L399.8 92.5Z" fill="#b2dfdb" stroke="#00695c" stroke-width="1" opacity="1" fill-rule="evenodd"/><text x="375.0" y="370.0" font-size="16" fill="#00695c" text-anchor="middle" font-weight="bold" >៣០៤ ចំណុច</text><path d="M598.0 117.8 L594.9 118.1 L594.3 117.2 L598.0 117.8Z M587.9 116.4 L595.1 118.9 L595.8 119.2 L587.9 116.4Z M580.0 109.4 L583.9 114.2 L588.3 114.0 L590.2 115.6 L580.1 117.0 L580.0 109.4Z M583.7 113.7 L584.8 111.7 L588.9 113.1 L594.1 116.3 L588.1 113.3 L583.7 113.7Z M644.8 92.5 L676.8 108.5 L697.6 113.8 L696.4 126.5 L703.5 129.9 L700.0 131.9 L702.2 138.8 L710.7 147.6 L709.0 158.8 L718.4 152.1 L717.9 166.6 L709.3 171.8 L706.3 182.6 L716.5 200.1 L715.3 204.8 L719.7 206.2 L720.1 218.7 L711.2 242.5 L716.6 246.1 L718.3 258.0 L715.7 266.4 L708.8 267.7 L701.1 278.3 L698.1 294.9 L682.4 296.4 L687.0 308.5 L666.1 316.6 L643.4 317.4 L624.4 335.2 L606.7 337.2 L600.3 331.6 L575.3 327.6 L563.8 314.8 L558.4 297.0 L545.8 287.2 L543.7 264.2 L532.0 256.7 L520.0 206.8 L522.2 195.2 L530.6 183.6 L559.0 171.5 L569.6 151.1 L580.5 145.0 L577.1 134.9 L579.4 119.2 L605.1 120.5 L604.0 118.7 L613.9 134.3 L629.3 143.8 L628.9 140.3 L631.8 146.7 L629.4 137.7 L615.4 124.8 L632.6 136.3 L636.1 126.9 L612.8 115.3 L614.9 103.9 L644.8 92.5Z" fill="#b2dfdb" stroke="#00695c" stroke-width="1" opacity="1" fill-rule="evenodd"/><text x="620.0" y="370.0" font-size="16" fill="#00695c" text-anchor="middle" font-weight="bold" >៧៨ ចំណុច</text><path d="M843.0 117.8 L839.9 118.1 L839.3 117.2 L843.0 117.8Z M832.9 116.4 L840.1 118.9 L840.8 119.2 L832.9 116.4Z M825.1 117.0 L828.9 114.2 L833.3 114.0 L835.2 115.6 L825.1 117.0Z M828.7 113.7 L829.8 111.7 L833.9 113.1 L839.1 116.3 L833.1 113.3 L828.7 113.7Z M889.8 92.5 L942.6 113.8 L954.0 158.8 L963.4 152.1 L951.3 182.6 L964.7 206.2 L963.3 258.0 L943.1 294.9 L927.4 296.4 L932.0 308.5 L851.7 337.2 L808.8 314.8 L765.0 206.8 L775.6 183.6 L825.5 145.0 L824.4 119.2 L850.1 120.5 L849.0 118.7 L876.8 146.7 L860.4 124.8 L877.6 136.3 L881.1 126.9 L857.8 115.3 L859.9 103.9 L889.8 92.5Z" fill="#b2dfdb" stroke="#00695c" stroke-width="1" opacity="1" fill-rule="evenodd"/><text x="865.0" y="370.0" font-size="16" fill="#00695c" text-anchor="middle" font-weight="bold" >៤៤ ចំណុច</text></svg>