<svg xmlns="http://www.w3.org/2000/svg" viewBox="0 0 1000 440" font-family="Battambang, Siemreap, sans-serif"><rect width="1000" height="440" fill="#ffffff"/><text x="24.0" y="38.0" font-size="24" fill="#00695c" text-anchor="start" font-weight="bold" class="ftitle">ការចែកចាយ GCP</text><rect x="60.0" y="90.0" width="380.0" height="280.0" rx="0" fill="#fafafa" stroke="#b0bec5" stroke-width="1" /><line x1="123.0" y1="90.0" x2="141.0" y2="370.0" stroke="#cfd8dc" stroke-width="1"/><line x1="186.0" y1="90.0" x2="186.0" y2="370.0" stroke="#cfd8dc" stroke-width="1"/><line x1="249.0" y1="90.0" x2="267.0" y2="370.0" stroke="#cfd8dc" stroke-width="1"/><line x1="312.0" y1="90.0" x2="312.0" y2="370.0" stroke="#cfd8dc" stroke-width="1"/><line x1="375.0" y1="90.0" x2="393.0" y2="370.0" stroke="#cfd8dc" stroke-width="1"/><circle cx="98.0" cy="118.0" r="7.00" fill="#e53935" stroke="none" stroke-width="1" opacity="1"/><circle cx="136.0" cy="132.0" r="7.00" fill="#e53935" stroke="none" stroke-width="1" opacity="1"/><circle cx="117.0" cy="146.0" r="7.00" fill="#e53935" stroke="none" stroke-width="1" opacity="1"/><circle cx="155.0" cy="123.6" r="7.00" fill="#e53935" stroke="none" stroke-width="1" opacity="1"/><text x="250.0" y="405.0" font-size="16" fill="#c62828" text-anchor="middle" font-weight="bold" >ប្រមូលផ្ដុំជ្រុងមួយ → ខូចឆ្ងាយ</text><rect x="540.0" y="90.0" width="380.0" height="280.0" rx="0" fill="#fafafa" stroke="#b0bec5" stroke-width="1" /><line x1="603.0" y1="90.0" x2="606.0" y2="370.0" stroke="#cfd8dc" stroke-width="1"/><line x1="666.0" y1="90.0" x2="666.0" y2="370.0" stroke="#cfd8dc" stroke-width="1"/><line x1="729.0" y1="90.0" x2="732.0" y2="370.0" stroke="#cfd8dc" stroke-width="1"/><line x1="792.0" y1="90.0" x2="792.0" y2="370.0" stroke="#cfd8dc" stroke-width="1"/><line x1="855.0" y1="90.0" x2="858.0" y2="370.0" stroke="#cfd8dc" stroke-width="1"/><circle cx="570.4" cy="118.0" r="7.00" fill="#e53935" stroke="none" stroke-width="1" opacity="1"/><circle cx="882.0" cy="118.0" r="7.00" fill="#e53935" stroke="none" stroke-width="1" opacity="1"/><circle cx="578.0" cy="342.0" r="7.00" fill="#e53935" stroke="none" stroke-width="1" opacity="1"/><circle cx="889.6" cy="336.4" r="7.00" fill="#e53935" stroke="none" stroke-width="1" opacity="1"/><circle cx="730.0" cy="230.0" r="7.00" fill="#e53935" stroke="none" stroke-width="1" opacity="1"/><circle cx="730.0" cy="118.0" r="7.00" fill="#e53935" stroke="none" stroke-width="1" opacity="1"/><text x="730.0" y="405.0" font-size="16" fill="#2e7d32" text-anchor="middle" font-weight="bold" >ចែកសព្វ → ស្ថិរភាព</text></svg>