<svg xmlns="http://www.w3.org/2000/svg" viewBox="0 0 1000 440" font-family="Battambang, Siemreap, sans-serif"><rect width="1000" height="440" fill="#ffffff"/><text x="24.0" y="38.0" font-size="24" fill="#00695c" text-anchor="start" font-weight="bold" class="ftitle">ទំនាក់ទំនងលំហ (predicates)</text><rect x="50.0" y="170.0" width="70.0" height="70.0" rx="0" fill="#80cbc4" stroke="#00695c" stroke-width="1" /><rect x="90.0" y="200.0" width="70.0" height="70.0" rx="0" fill="#ffcc80" stroke="#ff7043" stroke-width="1" fill-opacity=".7"/><text x="105.0" y="330.0" font-size="16" fill="#00695c" text-anchor="middle" font-weight="bold" >intersects</text><rect x="205.0" y="160.0" width="120.0" height="120.0" rx="0" fill="#80cbc4" stroke="#00695c" stroke-width="1" /><rect x="240.0" y="195.0" width="50.0" height="50.0" rx="0" fill="#ffcc80" stroke="#ff7043" stroke-width="1" /><text x="265.0" y="330.0" font-size="16" fill="#00695c" text-anchor="middle" font-weight="bold" >within</text><rect x="365.0" y="160.0" width="120.0" height="120.0" rx="0" fill="#ffcc80" stroke="#ff7043" stroke-width="1" /><circle cx="425.0" cy="220.0" r="8.00" fill="#00695c" stroke="none" stroke-width="1" opacity="1"/><text x="425.0" y="330.0" font-size="16" fill="#00695c" text-anchor="middle" font-weight="bold" >contains</text><rect x="520.0" y="175.0" width="65.0" height="90.0" rx="0" fill="#80cbc4" stroke="#00695c" stroke-width="1" /><rect x="585.0" y="175.0" width="65.0" height="90.0" rx="0" fill="#ffcc80" stroke="#ff7043" stroke-width="1" /><text x="585.0" y="330.0" font-size="16" fill="#00695c" text-anchor="middle" font-weight="bold" >touches</text><rect x="680.0" y="175.0" width="50.0" height="60.0" rx="0" fill="#80cbc4" stroke="#00695c" stroke-width="1" /><rect x="760.0" y="210.0" width="50.0" height="60.0" rx="0" fill="#ffcc80" stroke="#ff7043" stroke-width="1" /><text x="745.0" y="330.0" font-size="16" fill="#00695c" text-anchor="middle" font-weight="bold" >disjoint</text><rect x="855.0" y="170.0" width="100.0" height="100.0" rx="0" fill="#80cbc4" stroke="#00695c" stroke-width="1" /><line x1="835.0" y1="280.0" x2="975.0" y2="160.0" stroke="#ff7043" stroke-width="3"/><text x="905.0" y="330.0" font-size="16" fill="#00695c" text-anchor="middle" font-weight="bold" >crosses</text></svg>