<svg xmlns="http://www.w3.org/2000/svg" viewBox="0 0 1000 440" font-family="Battambang, Siemreap, sans-serif"><rect width="1000" height="440" fill="#ffffff"/><text x="24.0" y="38.0" font-size="24" fill="#00695c" text-anchor="start" font-weight="bold" class="ftitle">Cross-validation៖ ទុកចំណុចមួយចេញ ហើយព្យាករ</text><rect x="120.0" y="90.0" width="300.0" height="300.0" rx="0" fill="#fafafa" stroke="#cfd8dc" stroke-width="1" /><line x1="120.0" y1="390.0" x2="420.0" y2="90.0" stroke="#90a4ae" stroke-width="1" stroke-dasharray="5 4"/><circle cx="122.0" cy="229.8" r="5.00" fill="#26a69a" stroke="none" stroke-width="1" opacity="0.8"/><circle cx="323.9" cy="244.4" r="5.00" fill="#26a69a" stroke="none" stroke-width="1" opacity="0.8"/><circle cx="251.8" cy="216.0" r="5.00" fill="#26a69a" stroke="none" stroke-width="1" opacity="0.8"/><circle cx="217.8" cy="290.0" r="5.00" fill="#26a69a" stroke="none" stroke-width="1" opacity="0.8"/><circle cx="123.7" cy="309.7" r="5.00" fill="#26a69a" stroke="none" stroke-width="1" opacity="0.8"/><circle cx="145.5" cy="330.9" r="5.00" fill="#26a69a" stroke="none" stroke-width="1" opacity="0.8"/><circle cx="156.1" cy="341.3" r="5.00" fill="#26a69a" stroke="none" stroke-width="1" opacity="0.8"/><circle cx="320.2" cy="250.5" r="5.00" fill="#26a69a" stroke="none" stroke-width="1" opacity="0.8"/><circle cx="420.0" cy="271.6" r="5.00" fill="#26a69a" stroke="none" stroke-width="1" opacity="0.8"/><circle cx="218.5" cy="226.8" r="5.00" fill="#26a69a" stroke="none" stroke-width="1" opacity="0.8"/><circle cx="182.8" cy="301.8" r="5.00" fill="#26a69a" stroke="none" stroke-width="1" opacity="0.8"/><circle cx="167.1" cy="302.4" r="5.00" fill="#26a69a" stroke="none" stroke-width="1" opacity="0.8"/><circle cx="157.7" cy="336.5" r="5.00" fill="#26a69a" stroke="none" stroke-width="1" opacity="0.8"/><circle cx="211.1" cy="281.4" r="5.00" fill="#26a69a" stroke="none" stroke-width="1" opacity="0.8"/><circle cx="362.3" cy="261.2" r="5.00" fill="#26a69a" stroke="none" stroke-width="1" opacity="0.8"/><circle cx="246.3" cy="267.2" r="5.00" fill="#26a69a" stroke="none" stroke-width="1" opacity="0.8"/><circle cx="124.7" cy="359.6" r="5.00" fill="#26a69a" stroke="none" stroke-width="1" opacity="0.8"/><circle cx="120.0" cy="359.3" r="5.00" fill="#26a69a" stroke="none" stroke-width="1" opacity="0.8"/><circle cx="357.4" cy="248.4" r="5.00" fill="#26a69a" stroke="none" stroke-width="1" opacity="0.8"/><circle cx="192.7" cy="301.7" r="5.00" fill="#26a69a" stroke="none" stroke-width="1" opacity="0.8"/><circle cx="133.6" cy="252.0" r="5.00" fill="#26a69a" stroke="none" stroke-width="1" opacity="0.8"/><circle cx="176.9" cy="304.8" r="5.00" fill="#26a69a" stroke="none" stroke-width="1" opacity="0.8"/><circle cx="359.6" cy="268.0" r="5.00" fill="#26a69a" stroke="none" stroke-width="1" opacity="0.8"/><circle cx="339.1" cy="254.8" r="5.00" fill="#26a69a" stroke="none" stroke-width="1" opacity="0.8"/><circle cx="190.4" cy="299.0" r="5.00" fill="#26a69a" stroke="none" stroke-width="1" opacity="0.8"/><text x="270.0" y="420.0" font-size="14" fill="#263238" text-anchor="middle" font-weight="normal" >តម្លៃវាស់</text><text x="70.0" y="240.0" font-size="14" fill="#263238" text-anchor="middle" font-weight="normal" >ព្យាករ</text><text x="520.0" y="200.0" font-size="30" fill="#00695c" text-anchor="start" font-weight="bold" >RMSE ≈ ៥៣ ម</text><text x="520.0" y="250.0" font-size="17" fill="#263238" text-anchor="start" font-weight="normal" >ចំណុចកាន់តែជិតខ្សែ ១:១ កាន់តែល្អ</text></svg>