<svg xmlns="http://www.w3.org/2000/svg" viewBox="0 0 1000 380" font-family="Battambang, Siemreap, sans-serif"><defs><marker id="arrow" viewBox="0 0 10 10" refX="9" refY="5" markerWidth="7" markerHeight="7" orient="auto-start-reverse"><path d="M0 0L10 5L0 10z" fill="context-stroke"/></marker></defs><rect width="1000" height="380" fill="#ffffff"/><text x="24.0" y="38.0" font-size="24" fill="#00695c" text-anchor="start" font-weight="bold" class="ftitle">ជំហាន MCDA</text><rect x="20.0" y="150.0" width="125.0" height="70.0" rx="10" fill="#1b9e77" stroke="none" stroke-width="1" /><text x="82.0" y="192.0" font-size="16" fill="#fff" text-anchor="middle" font-weight="bold" >គោលដៅ</text><line x1="147.0" y1="185.0" x2="158.0" y2="185.0" stroke="#607d8b" stroke-width="2" marker-end="url(#arrow)"/><rect x="160.0" y="150.0" width="125.0" height="70.0" rx="10" fill="#d95f02" stroke="none" stroke-width="1" /><text x="222.0" y="192.0" font-size="16" fill="#fff" text-anchor="middle" font-weight="bold" >Constraint</text><line x1="287.0" y1="185.0" x2="298.0" y2="185.0" stroke="#607d8b" stroke-width="2" marker-end="url(#arrow)"/><rect x="300.0" y="150.0" width="125.0" height="70.0" rx="10" fill="#7570b3" stroke="none" stroke-width="1" /><text x="362.0" y="192.0" font-size="16" fill="#fff" text-anchor="middle" font-weight="bold" >Factor</text><line x1="427.0" y1="185.0" x2="438.0" y2="185.0" stroke="#607d8b" stroke-width="2" marker-end="url(#arrow)"/><rect x="440.0" y="150.0" width="125.0" height="70.0" rx="10" fill="#e7298a" stroke="none" stroke-width="1" /><text x="502.0" y="192.0" font-size="16" fill="#fff" text-anchor="middle" font-weight="bold" >ស្តង់ដារ</text><line x1="567.0" y1="185.0" x2="578.0" y2="185.0" stroke="#607d8b" stroke-width="2" marker-end="url(#arrow)"/><rect x="580.0" y="150.0" width="125.0" height="70.0" rx="10" fill="#66a61e" stroke="none" stroke-width="1" /><text x="642.0" y="192.0" font-size="16" fill="#fff" text-anchor="middle" font-weight="bold" >ទម្ងន់</text><line x1="707.0" y1="185.0" x2="718.0" y2="185.0" stroke="#607d8b" stroke-width="2" marker-end="url(#arrow)"/><rect x="720.0" y="150.0" width="125.0" height="70.0" rx="10" fill="#e6ab02" stroke="none" stroke-width="1" /><text x="782.0" y="192.0" font-size="16" fill="#fff" text-anchor="middle" font-weight="bold" >បញ្ចូលគ្នា</text><line x1="847.0" y1="185.0" x2="858.0" y2="185.0" stroke="#607d8b" stroke-width="2" marker-end="url(#arrow)"/><rect x="860.0" y="150.0" width="125.0" height="70.0" rx="10" fill="#a6761d" stroke="none" stroke-width="1" /><text x="922.0" y="192.0" font-size="16" fill="#fff" text-anchor="middle" font-weight="bold" >ភាពរសើប</text></svg>