<svg viewBox="0 0 760 320" xmlns="http://www.w3.org/2000/svg" role="img" class="km-fig"><style>.km-fig{width:100%;height:auto}.km-fig text{font-family:var(--km-stack,'Battambang',sans-serif);fill:var(--md-default-fg-color,#222)}.km-t{font-size:15px;font-weight:700}.km-s{font-size:12.5px}.km-xs{font-size:11px}.km-box{fill:none;stroke:var(--md-default-fg-color--lighter,#bbb);stroke-width:1.5}.km-hdr{fill:var(--md-primary-fg-color,#00897b);opacity:.14}.km-line{stroke:var(--md-primary-fg-color,#00897b);stroke-width:1.4;stroke-dasharray:4 3;fill:none}.km-pt{fill:var(--md-primary-fg-color,#00897b)}.km-land{fill:var(--md-default-fg-color--lightest,#eee)}.km-riv{stroke:#4a90d9;stroke-width:3.5;fill:none;opacity:.7}</style><text class="km-t" x="10" y="22">ទីតាំង (កន្លែងណា)</text><text class="km-t" x="400" y="22">គុណលក្ខណៈ (អ្វី)</text><rect class="km-land" x="10" y="38" width="330" height="248" rx="6"/><rect class="km-box" x="10" y="38" width="330" height="248" rx="6"/><path class="km-riv" d="M20 250 C90 220 120 170 180 150 C240 130 270 80 330 62"/><circle class="km-pt" cx="80" cy="95" r="7"/><circle class="km-pt" cx="200" cy="200" r="7"/><circle class="km-pt" cx="275" cy="120" r="7"/><text class="km-xs" x="92" y="99">ភូមិ ក</text><text class="km-xs" x="212" y="204">ភូមិ ខ</text><text class="km-xs" x="287" y="124">ភូមិ គ</text><rect class="km-hdr" x="400" y="38" width="350" height="34"/><rect class="km-box" x="400" y="38" width="350" height="34"/><rect class="km-box" x="400" y="72" width="350" height="36"/><rect class="km-box" x="400" y="108" width="350" height="36"/><rect class="km-box" x="400" y="144" width="350" height="36"/><line class="km-box" x1="510" y1="38" x2="510" y2="180"/><line class="km-box" x1="630" y1="38" x2="630" y2="180"/><text class="km-s" x="412" y="61">ឈ្មោះ</text><text class="km-s" x="522" y="61">ប្រជាជន</text><text class="km-s" x="642" y="61">មណ្ឌល</text><text class="km-s" x="412" y="95">ភូមិ ក</text><text class="km-s" x="522" y="95">៨៤០</text><text class="km-s" x="642" y="95">មាន</text><text class="km-s" x="412" y="131">ភូមិ ខ</text><text class="km-s" x="522" y="131">៥២០</text><text class="km-s" x="642" y="131">គ្មាន</text><text class="km-s" x="412" y="167">ភូមិ គ</text><text class="km-s" x="522" y="167">១៣០</text><text class="km-s" x="642" y="167">គ្មាន</text><path class="km-line" d="M87 95 C240 95 300 86 398 86"/><path class="km-line" d="M207 200 C300 200 320 128 398 122"/><path class="km-line" d="M282 120 C330 120 350 158 398 158"/><text class="km-s" x="400" y="222">GIS ភ្ជាប់ផ្នែកទាំងពីរនេះជាប់គ្នា។</text><text class="km-s" x="400" y="248">ដក​ផ្នែកណាមួយចេញ នោះសំណួរ</text><text class="km-s" x="400" y="274">មិនអាចឆ្លើយបានទេ។</text></svg>
