<svg viewBox="0 0 700 430" xmlns="http://www.w3.org/2000/svg" role="img" class="km-fig"><style>.km-fig{width:100%;height:auto}
.km-fig text{font-family:var(--km-read-stack,'Siemreap',sans-serif);fill:var(--md-default-fg-color,#222)}
.h{font-family:var(--km-emph-stack,'Battambang',sans-serif);font-weight:700;font-size:15px}
.l{font-family:var(--km-emph-stack,'Battambang',sans-serif);font-weight:700;font-size:13px}
.m{font-size:12px}
.c{text-anchor:middle}
.box{fill:var(--md-default-fg-color--lightest,#eee);stroke:var(--md-default-fg-color--lighter,#bbb);stroke-width:1.8}
.frame{fill:none;stroke:var(--md-default-fg-color--lighter,#bbb);stroke-width:1.8}
.hi{fill:var(--md-primary-fg-color,#00897b);opacity:.16;stroke:var(--md-primary-fg-color,#00897b);stroke-width:2.2}
.con{stroke:var(--md-default-fg-color--light,#999);stroke-width:1.8}
.ar{stroke:var(--md-primary-fg-color,#00897b);stroke-width:2.4;fill:none;marker-end:url(#a)}
.fb{stroke:#c0392b;stroke-width:2;fill:none;stroke-dasharray:7 5;marker-end:url(#r)}.rv{stroke:#4a90d9;stroke-width:11;fill:none;opacity:.7}.rd{stroke:#8a7a5c;stroke-width:5;fill:none}.dash{stroke:#c0392b;stroke-width:2.6;stroke-dasharray:9 6;fill:none}.v{fill:#c0392b}.s{fill:#1f6fb2}.km{font-family:var(--km-emph-stack,'Battambang',sans-serif);font-weight:700;font-size:13px}</style><defs><marker id="a" viewBox="0 0 10 10" refX="9" refY="5" markerWidth="6" markerHeight="6" orient="auto"><path d="M0 0 L10 5 L0 10 z" fill="var(--md-primary-fg-color,#00897b)"/></marker><marker id="r" viewBox="0 0 10 10" refX="9" refY="5" markerWidth="6" markerHeight="6" orient="auto"><path d="M0 0 L10 5 L0 10 z" fill="#c0392b"/></marker></defs><rect class="frame" x="16" y="16" width="668" height="330" rx="8" fill="var(--md-default-fg-color--lightest,#f4f4f4)"/><path class="rv" d="M370 24 L370 338"/><text class="m" x="384" y="46">ទន្លេ</text><path class="rd" d="M234 130 L126 130"/><path class="rd" d="M250 146 L250 300 L500 300 L500 146"/><path class="dash" d="M266 130 L484 130"/><rect x="352" y="290" width="36" height="20" rx="3" fill="#8a7a5c"/><text class="m" x="398" y="306">ស្ពាន</text><circle class="v" cx="250" cy="130" r="12"/><text class="l" x="232" y="106">V1</text><circle class="s" cx="500" cy="130" r="12"/><text class="l" x="518" y="136">S1</text><circle class="s" cx="110" cy="130" r="12"/><text class="l" x="74" y="136">S2</text><text class="km c" x="180" y="116">៣ គម</text><text class="km c" x="330" y="116">២ គម</text><text class="km c" x="200" y="220">៤ គម</text><text class="km c" x="375" y="332">២ គម</text><text class="km c" x="530" y="220">៤ គម</text><path class="dash" d="M40 376 L92 376"/><text class="m" x="102" y="381">ចម្ងាយត្រង់</text><path class="rd" d="M300 376 L352 376"/><text class="m" x="362" y="381">ចម្ងាយតាមផ្លូវ</text><text class="l" x="40" y="412">V1 ទៅ S1 = ១០ គម</text><text class="l" x="300" y="412">V1 ទៅ S2 = ៣ គម</text></svg>