<svg viewBox="0 0 740 330" xmlns="http://www.w3.org/2000/svg" role="img" class="km-fig"><style>.km-fig{width:100%;height:auto}.km-fig text{font-family:var(--km-read-stack,'Siemreap',sans-serif);fill:var(--md-default-fg-color,#222)}.km-h{font-family:var(--km-emph-stack,'Battambang',sans-serif);font-size:16.5px;font-weight:700;text-anchor:middle}.km-s{font-size:12.8px}.km-box{fill:none;stroke:var(--md-default-fg-color--lighter,#bbb);stroke-width:1.4}.km-riv{stroke:#4a90d9;stroke-width:4;fill:none}.km-fld{fill:#7fb77e;opacity:.5;stroke:#2f6b2f;stroke-width:1.6}.km-bld{fill:#e8b06a;opacity:.7;stroke:#a0722a;stroke-width:1.4}.km-vx{fill:#fff;stroke:#c0392b;stroke-width:1.6}</style><text class="km-h" x="160" y="26">គំរូវ៉ិចទ័រ</text><rect class="km-box" x="40" y="40" width="240" height="220" rx="6"/><path class="km-fld" d="M60 60 L180 60 L180 150 L60 150 Z"/><path class="km-fld" d="M190 60 L262 60 L262 150 L190 150 Z"/><path class="km-riv" d="M64 258 C110 214 150 210 190 170 C215 146 240 120 264 92"/><rect class="km-bld" x="70" y="186" width="28" height="22"/><rect class="km-bld" x="112" y="200" width="24" height="20"/><circle class="km-vx" cx="60" cy="60" r="4"/><circle class="km-vx" cx="180" cy="60" r="4"/><circle class="km-vx" cx="180" cy="150" r="4"/><circle class="km-vx" cx="60" cy="150" r="4"/><text class="km-h" x="576" y="26">គំរូរ៉ាស្ទ័រ</text><rect class="km-box" x="410" y="40" width="240" height="220" rx="6"/><rect x="430" y="64" width="22" height="22" fill="#7fb77e" opacity=".6" stroke="#bbb" stroke-width=".7"/><rect x="452" y="64" width="22" height="22" fill="#8fa9c9" opacity=".85" stroke="#bbb" stroke-width=".7"/><rect x="474" y="64" width="22" height="22" fill="#8fa9c9" opacity=".85" stroke="#bbb" stroke-width=".7"/><rect x="496" y="64" width="22" height="22" fill="#7fb77e" opacity=".6" stroke="#bbb" stroke-width=".7"/><rect x="518" y="64" width="22" height="22" fill="#7fb77e" opacity=".6" stroke="#bbb" stroke-width=".7"/><rect x="540" y="64" width="22" height="22" fill="#7fb77e" opacity=".6" stroke="#bbb" stroke-width=".7"/><rect x="562" y="64" width="22" height="22" fill="#7fb77e" opacity=".6" stroke="#bbb" stroke-width=".7"/><rect x="584" y="64" width="22" height="22" fill="#7fb77e" opacity=".6" stroke="#bbb" stroke-width=".7"/><rect x="606" y="64" width="22" height="22" fill="#7fb77e" opacity=".6" stroke="#bbb" stroke-width=".7"/><rect x="430" y="86" width="22" height="22" fill="#7fb77e" opacity=".6" stroke="#bbb" stroke-width=".7"/><rect x="452" y="86" width="22" height="22" fill="#8fa9c9" opacity=".85" stroke="#bbb" stroke-width=".7"/><rect x="474" y="86" width="22" height="22" fill="#8fa9c9" opacity=".85" stroke="#bbb" stroke-width=".7"/><rect x="496" y="86" width="22" height="22" fill="#7fb77e" opacity=".6" stroke="#bbb" stroke-width=".7"/><rect x="518" y="86" width="22" height="22" fill="#7fb77e" opacity=".6" stroke="#bbb" stroke-width=".7"/><rect x="540" y="86" width="22" height="22" fill="#7fb77e" opacity=".6" stroke="#bbb" stroke-width=".7"/><rect x="562" y="86" width="22" height="22" fill="#7fb77e" opacity=".6" stroke="#bbb" stroke-width=".7"/><rect x="584" y="86" width="22" height="22" fill="#7fb77e" opacity=".6" stroke="#bbb" stroke-width=".7"/><rect x="606" y="86" width="22" height="22" fill="#7fb77e" opacity=".6" stroke="#bbb" stroke-width=".7"/><rect x="430" y="108" width="22" height="22" fill="#7fb77e" opacity=".6" stroke="#bbb" stroke-width=".7"/><rect x="452" y="108" width="22" height="22" fill="#7fb77e" opacity=".6" stroke="#bbb" stroke-width=".7"/><rect x="474" y="108" width="22" height="22" fill="#8fa9c9" opacity=".85" stroke="#bbb" stroke-width=".7"/><rect x="496" y="108" width="22" height="22" fill="#8fa9c9" opacity=".85" stroke="#bbb" stroke-width=".7"/><rect x="518" y="108" width="22" height="22" fill="#7fb77e" opacity=".6" stroke="#bbb" stroke-width=".7"/><rect x="540" y="108" width="22" height="22" fill="#7fb77e" opacity=".6" stroke="#bbb" stroke-width=".7"/><rect x="562" y="108" width="22" height="22" fill="#7fb77e" opacity=".6" stroke="#bbb" stroke-width=".7"/><rect x="584" y="108" width="22" height="22" fill="#7fb77e" opacity=".6" stroke="#bbb" stroke-width=".7"/><rect x="606" y="108" width="22" height="22" fill="#7fb77e" opacity=".6" stroke="#bbb" stroke-width=".7"/><rect x="430" y="130" width="22" height="22" fill="#7fb77e" opacity=".6" stroke="#bbb" stroke-width=".7"/><rect x="452" y="130" width="22" height="22" fill="#7fb77e" opacity=".6" stroke="#bbb" stroke-width=".7"/><rect x="474" y="130" width="22" height="22" fill="#8fa9c9" opacity=".85" stroke="#bbb" stroke-width=".7"/><rect x="496" y="130" width="22" height="22" fill="#8fa9c9" opacity=".85" stroke="#bbb" stroke-width=".7"/><rect x="518" y="130" width="22" height="22" fill="#7fb77e" opacity=".6" stroke="#bbb" stroke-width=".7"/><rect x="540" y="130" width="22" height="22" fill="#7fb77e" opacity=".6" stroke="#bbb" stroke-width=".7"/><rect x="562" y="130" width="22" height="22" fill="#7fb77e" opacity=".6" stroke="#bbb" stroke-width=".7"/><rect x="584" y="130" width="22" height="22" fill="#7fb77e" opacity=".6" stroke="#bbb" stroke-width=".7"/><rect x="606" y="130" width="22" height="22" fill="#7fb77e" opacity=".6" stroke="#bbb" stroke-width=".7"/><rect x="430" y="152" width="22" height="22" fill="#7fb77e" opacity=".6" stroke="#bbb" stroke-width=".7"/><rect x="452" y="152" width="22" height="22" fill="#7fb77e" opacity=".6" stroke="#bbb" stroke-width=".7"/><rect x="474" y="152" width="22" height="22" fill="#7fb77e" opacity=".6" stroke="#bbb" stroke-width=".7"/><rect x="496" y="152" width="22" height="22" fill="#8fa9c9" opacity=".85" stroke="#bbb" stroke-width=".7"/><rect x="518" y="152" width="22" height="22" fill="#8fa9c9" opacity=".85" stroke="#bbb" stroke-width=".7"/><rect x="540" y="152" width="22" height="22" fill="#7fb77e" opacity=".6" stroke="#bbb" stroke-width=".7"/><rect x="562" y="152" width="22" height="22" fill="#7fb77e" opacity=".6" stroke="#bbb" stroke-width=".7"/><rect x="584" y="152" width="22" height="22" fill="#7fb77e" opacity=".6" stroke="#bbb" stroke-width=".7"/><rect x="606" y="152" width="22" height="22" fill="#7fb77e" opacity=".6" stroke="#bbb" stroke-width=".7"/><rect x="430" y="174" width="22" height="22" fill="#7fb77e" opacity=".6" stroke="#bbb" stroke-width=".7"/><rect x="452" y="174" width="22" height="22" fill="#7fb77e" opacity=".6" stroke="#bbb" stroke-width=".7"/><rect x="474" y="174" width="22" height="22" fill="#7fb77e" opacity=".6" stroke="#bbb" stroke-width=".7"/><rect x="496" y="174" width="22" height="22" fill="#8fa9c9" opacity=".85" stroke="#bbb" stroke-width=".7"/><rect x="518" y="174" width="22" height="22" fill="#8fa9c9" opacity=".85" stroke="#bbb" stroke-width=".7"/><rect x="540" y="174" width="22" height="22" fill="#7fb77e" opacity=".6" stroke="#bbb" stroke-width=".7"/><rect x="562" y="174" width="22" height="22" fill="#7fb77e" opacity=".6" stroke="#bbb" stroke-width=".7"/><rect x="584" y="174" width="22" height="22" fill="#7fb77e" opacity=".6" stroke="#bbb" stroke-width=".7"/><rect x="606" y="174" width="22" height="22" fill="#7fb77e" opacity=".6" stroke="#bbb" stroke-width=".7"/><rect x="430" y="196" width="22" height="22" fill="#e8b06a" opacity=".7" stroke="#bbb" stroke-width=".7"/><rect x="452" y="196" width="22" height="22" fill="#e8b06a" opacity=".7" stroke="#bbb" stroke-width=".7"/><rect x="474" y="196" width="22" height="22" fill="#e8b06a" opacity=".7" stroke="#bbb" stroke-width=".7"/><rect x="496" y="196" width="22" height="22" fill="#e8b06a" opacity=".7" stroke="#bbb" stroke-width=".7"/><rect x="518" y="196" width="22" height="22" fill="#8fa9c9" opacity=".85" stroke="#bbb" stroke-width=".7"/><rect x="540" y="196" width="22" height="22" fill="#8fa9c9" opacity=".85" stroke="#bbb" stroke-width=".7"/><rect x="562" y="196" width="22" height="22" fill="#e8b06a" opacity=".7" stroke="#bbb" stroke-width=".7"/><rect x="584" y="196" width="22" height="22" fill="#e8b06a" opacity=".7" stroke="#bbb" stroke-width=".7"/><rect x="606" y="196" width="22" height="22" fill="#e8b06a" opacity=".7" stroke="#bbb" stroke-width=".7"/><rect x="430" y="218" width="22" height="22" fill="#e8b06a" opacity=".7" stroke="#bbb" stroke-width=".7"/><rect x="452" y="218" width="22" height="22" fill="#e8b06a" opacity=".7" stroke="#bbb" stroke-width=".7"/><rect x="474" y="218" width="22" height="22" fill="#e8b06a" opacity=".7" stroke="#bbb" stroke-width=".7"/><rect x="496" y="218" width="22" height="22" fill="#e8b06a" opacity=".7" stroke="#bbb" stroke-width=".7"/><rect x="518" y="218" width="22" height="22" fill="#e8b06a" opacity=".7" stroke="#bbb" stroke-width=".7"/><rect x="540" y="218" width="22" height="22" fill="#8fa9c9" opacity=".85" stroke="#bbb" stroke-width=".7"/><rect x="562" y="218" width="22" height="22" fill="#8fa9c9" opacity=".85" stroke="#bbb" stroke-width=".7"/><rect x="584" y="218" width="22" height="22" fill="#e8b06a" opacity=".7" stroke="#bbb" stroke-width=".7"/><rect x="606" y="218" width="22" height="22" fill="#e8b06a" opacity=".7" stroke="#bbb" stroke-width=".7"/><rect x="430" y="240" width="22" height="22" fill="#e8b06a" opacity=".7" stroke="#bbb" stroke-width=".7"/><rect x="452" y="240" width="22" height="22" fill="#e8b06a" opacity=".7" stroke="#bbb" stroke-width=".7"/><rect x="474" y="240" width="22" height="22" fill="#e8b06a" opacity=".7" stroke="#bbb" stroke-width=".7"/><rect x="496" y="240" width="22" height="22" fill="#e8b06a" opacity=".7" stroke="#bbb" stroke-width=".7"/><rect x="518" y="240" width="22" height="22" fill="#e8b06a" opacity=".7" stroke="#bbb" stroke-width=".7"/><rect x="540" y="240" width="22" height="22" fill="#8fa9c9" opacity=".85" stroke="#bbb" stroke-width=".7"/><rect x="562" y="240" width="22" height="22" fill="#8fa9c9" opacity=".85" stroke="#bbb" stroke-width=".7"/><rect x="584" y="240" width="22" height="22" fill="#e8b06a" opacity=".7" stroke="#bbb" stroke-width=".7"/><rect x="606" y="240" width="22" height="22" fill="#e8b06a" opacity=".7" stroke="#bbb" stroke-width=".7"/><text class="km-s" x="40" y="286">ព្រំដែនច្បាស់ · វាស់ផ្ទៃបានត្រឹមត្រូវ</text><text class="km-s" x="40" y="306">ឯកសារតូច · គុណលក្ខណៈសម្បូរ</text><text class="km-s" x="40" y="326">ល្អសម្រាប់៖ ព្រំដែន ផ្លូវ ក្បាលដី អគារ</text><text class="km-s" x="410" y="286">ព្រំដែនជាជណ្ដើរ · អាស្រ័យលើទំហំក្រឡា</text><text class="km-s" x="410" y="306">គណនាលឿន · ល្អសម្រាប់ទិន្នន័យជាប់គ្នា</text><text class="km-s" x="410" y="326">ល្អសម្រាប់៖ កម្ពស់ សីតុណ្ហភាព NDVI ជម្រាល</text></svg>